<?xml version="1.0" standalone="no"?>
<!DOCTYPE svg PUBLIC "-//W3C//DTD SVG 20010904//EN"
 "http://www.w3.org/TR/2001/REC-SVG-20010904/DTD/svg10.dtd">
<svg version="1.0" xmlns="http://www.w3.org/2000/svg"
 width="1024.000000pt" height="1024.000000pt" viewBox="0 0 1024.000000 1024.000000"
 preserveAspectRatio="xMidYMid meet">

<g transform="translate(0.000000,1024.000000) scale(0.100000,-0.100000)"
fill="#000000" stroke="none">
<path d="M2002 9231 c-9 -5 -12 -25 -10 -62 l3 -54 68 -3 67 -3 0 66 0 65 -57
0 c-32 0 -64 -4 -71 -9z"/>
<path d="M2310 8638 l0 -148 150 0 150 0 0 148 0 147 -150 0 -150 0 0 -147z"/>
<path d="M5547 8765 c-705 -89 -1332 -488 -1685 -1071 -54 -89 -67 -127 -18
-54 41 62 92 115 186 195 289 244 552 374 895 441 l70 14 -65 -6 c-36 -3 -76
-7 -90 -8 -14 -2 -18 -1 -10 1 8 3 20 12 26 21 6 8 18 16 27 18 8 1 62 29 119
62 333 195 722 291 1184 292 88 0 209 -5 268 -11 141 -14 359 -69 454 -114 43
-20 73 -32 67 -26 -18 18 -188 98 -290 136 -121 45 -203 66 -365 95 -161 28
-603 37 -773 15z m553 -5 c202 -15 406 -54 539 -101 31 -11 62 -23 70 -25 8
-2 12 -7 9 -9 -3 -3 -27 2 -54 10 -172 52 -724 60 -954 13 -30 -6 -72 -12 -92
-12 -25 0 -33 -3 -25 -9 8 -6 4 -7 -10 -4 -13 3 -26 1 -29 -4 -3 -5 -11 -9
-17 -9 -7 0 -6 4 3 10 13 9 13 11 1 19 -8 5 -20 7 -28 4 -7 -3 -20 0 -28 7 -8
7 -15 8 -15 3 0 -5 -7 -10 -15 -10 -8 0 -15 4 -15 8 0 13 -54 5 -68 -11 -11
-13 -12 -12 -3 5 5 11 19 21 30 21 39 3 41 4 41 23 0 10 -7 21 -15 25 -13 4
-14 2 -5 -14 6 -11 7 -20 1 -20 -5 0 -12 7 -15 16 -3 8 -11 12 -17 8 -7 -4
-10 -1 -7 7 14 42 436 70 718 49z m-752 -52 c-16 -5 -28 -14 -28 -19 0 -5 -5
-9 -11 -9 -5 0 -7 5 -4 10 3 6 1 10 -4 10 -6 0 -11 -4 -11 -8 0 -4 -15 -9 -32
-10 -32 -3 -66 -22 -38 -22 7 0 11 -3 7 -6 -3 -3 -15 1 -27 9 -21 14 -17 16
62 35 89 22 130 27 86 10z m22 -24 c0 -8 -5 -12 -10 -9 -6 4 -8 11 -5 16 9 14
15 11 15 -7z m-70 -19 c0 -1 -12 -2 -26 -2 -17 0 -22 2 -13 7 10 7 39 3 39 -5z
m-140 -5 c-8 -5 -22 -9 -30 -9 -10 0 -8 3 5 9 27 12 43 12 25 0z m-75 -25
c-16 -8 -37 -14 -45 -14 -8 0 1 7 20 14 46 18 64 17 25 0z m361 -33 c-2 -9
-11 -19 -20 -20 -15 -3 -16 -1 -7 16 14 27 14 35 -1 26 -7 -4 -8 -3 -4 5 11
17 35 -4 32 -27z m-196 16 c0 -4 -4 -8 -9 -8 -6 0 -12 4 -15 8 -3 5 1 9 9 9 8
0 15 -4 15 -9z m-240 -8 c-8 -5 -19 -10 -25 -10 -5 0 -3 5 5 10 8 5 20 10 25
10 6 0 3 -5 -5 -10z m380 -4 c-7 -7 -13 -7 -20 0 -6 6 -3 10 10 10 13 0 16 -4
10 -10z m120 4 c-8 -5 -22 -10 -30 -10 -13 0 -13 1 0 10 8 5 22 10 30 10 13 0
13 -1 0 -10z m-560 -25 c-14 -8 -29 -14 -35 -14 -5 0 1 6 15 14 14 8 30 14 35
14 6 0 -1 -6 -15 -14z m390 -1 c0 -8 -19 -13 -24 -6 -3 5 1 9 9 9 8 0 15 -2
15 -3z m60 -5 c0 -5 -3 -8 -7 -7 -5 1 -19 -4 -31 -11 -13 -7 -27 -10 -30 -6
-3 3 4 8 16 12 12 3 20 8 18 12 -3 4 4 8 15 8 10 1 19 -2 19 -8z m-535 -29
c-3 -5 -12 -10 -18 -10 -7 0 -6 4 3 10 19 12 23 12 15 0z m455 0 c0 -5 -8 -10
-17 -10 -15 0 -16 2 -3 10 19 12 20 12 20 0z m-60 -17 c0 -1 -9 -7 -19 -12
-14 -8 -22 -7 -29 2 -9 10 -4 13 19 12 16 0 29 -1 29 -2z m-1290 -713 c-6 -11
-13 -20 -16 -20 -2 0 0 9 6 20 6 11 13 20 16 20 2 0 0 -9 -6 -20z m-30 -49
c-5 -11 -15 -23 -22 -27 -7 -5 -8 -2 -3 7 21 37 44 55 25 20z"/>
<path d="M5456 8722 c-2 -4 11 -6 30 -4 19 2 34 6 34 8 0 8 -59 4 -64 -4z"/>
<path d="M5458 8673 c7 -3 16 -2 19 1 4 3 -2 6 -13 5 -11 0 -14 -3 -6 -6z"/>
<path d="M5495 8660 c3 -5 8 -10 11 -10 2 0 4 5 4 10 0 6 -5 10 -11 10 -5 0
-7 -4 -4 -10z"/>
<path d="M732 8683 l3 -58 63 -3 62 -3 0 61 0 60 -65 0 -66 0 3 -57z"/>
<path d="M1430 8510 l0 -60 65 0 65 0 0 60 0 60 -65 0 -65 0 0 -60z"/>
<path d="M2780 8365 l0 -96 98 3 97 3 3 93 3 92 -101 0 -100 0 0 -95z"/>
<path d="M5033 8293 c20 -2 54 -2 75 0 20 2 3 4 -38 4 -41 0 -58 -2 -37 -4z"/>
<path d="M5238 8293 c23 -2 59 -2 80 0 20 2 1 4 -43 4 -44 0 -61 -2 -37 -4z"/>
<path d="M5403 8283 c9 -2 25 -2 35 0 9 3 1 5 -18 5 -19 0 -27 -2 -17 -5z"/>
<path d="M5470 8276 c0 -2 11 -6 25 -8 13 -3 22 -1 19 3 -5 9 -44 13 -44 5z"/>
<path d="M5538 8263 c7 -3 16 -2 19 1 4 3 -2 6 -13 5 -11 0 -14 -3 -6 -6z"/>
<path d="M1056 8142 c-3 -3 -6 -29 -6 -59 l0 -53 43 0 c23 0 52 -3 65 -6 22
-6 23 -5 20 57 l-3 64 -57 2 c-31 1 -59 -1 -62 -5z"/>
<path d="M2490 8020 l0 -100 95 0 95 0 0 100 0 100 -95 0 -95 0 0 -100z"/>
<path d="M1888 7993 c7 -3 16 -2 19 1 4 3 -2 6 -13 5 -11 0 -14 -3 -6 -6z"/>
<path d="M2018 7933 c-1 -27 0 -66 3 -88 4 -28 7 -15 8 48 1 94 -5 117 -11 40z"/>
<path d="M1877 7964 c-4 -4 -7 -34 -7 -66 l0 -58 65 0 66 0 -3 63 -3 62 -55 3
c-31 2 -59 0 -63 -4z m111 -61 l3 -53 -55 0 -56 0 0 56 0 55 53 -3 52 -3 3
-52z"/>
<path d="M4768 6555 l2 -1375 420 0 420 0 2 1375 3 1375 -425 0 -425 0 3
-1375z"/>
<path d="M1843 7885 c0 -22 2 -30 4 -17 2 12 2 30 0 40 -3 9 -5 -1 -4 -23z"/>
<path d="M2075 7778 c-2 -7 -5 -32 -7 -55 l-4 -43 57 0 c64 0 69 6 69 71 l0
39 -55 0 c-36 0 -57 -4 -60 -12z"/>
<path d="M2230 7525 l0 -55 60 0 60 0 0 55 0 55 -60 0 -60 0 0 -55z"/>
<path d="M3213 7385 c0 -27 2 -38 4 -22 2 15 2 37 0 50 -2 12 -4 0 -4 -28z"/>
<path d="M3084 7370 l1 -45 58 -1 57 -1 -54 4 -55 4 -4 42 -4 42 1 -45z"/>
<path d="M1852 7297 c-29 -29 -52 -57 -52 -63 0 -11 108 -120 112 -113 2 2 27
30 57 61 l54 57 -53 55 c-29 31 -56 56 -60 56 -3 0 -29 -24 -58 -53z"/>
<path d="M2500 7215 l0 -76 73 3 72 3 3 73 3 72 -76 0 -75 0 0 -75z"/>
<path d="M3138 7283 c12 -2 32 -2 45 0 12 2 2 4 -23 4 -25 0 -35 -2 -22 -4z"/>
<path d="M3218 7283 c7 -3 16 -2 19 1 4 3 -2 6 -13 5 -11 0 -14 -3 -6 -6z"/>
<path d="M780 7125 l0 -55 60 0 60 0 0 55 0 55 -60 0 -60 0 0 -55z"/>
<path d="M1520 6796 l0 -63 63 1 62 1 3 63 3 62 -66 0 -65 0 0 -64z"/>
<path d="M1990 6683 l0 -163 160 0 160 0 -2 163 -3 162 -157 0 -158 0 0 -162z
m246 5 l-2 -73 -87 -3 -87 -3 0 76 0 75 89 0 88 0 -1 -72z"/>
<path d="M3394 6665 l0 -135 133 0 133 0 0 135 0 135 -133 0 -132 0 -1 -135z"/>
<path d="M750 6610 c0 -49 4 -90 8 -90 4 0 6 38 4 85 l-3 84 68 4 68 3 -72 2
-73 2 0 -90z"/>
<path d="M921 6629 c0 -41 4 -83 8 -94 5 -11 6 20 3 70 -6 111 -12 124 -11 24z"/>
<path d="M775 6611 c0 -31 5 -59 10 -62 6 -3 36 -3 68 -1 l57 4 0 44 c0 25 -5
44 -11 44 -7 0 -10 -15 -7 -40 l4 -40 -53 0 -53 0 0 49 0 50 48 4 c46 3 46 4
-8 4 l-55 0 0 -56z"/>
<path d="M1853 6360 c-29 -32 -53 -62 -53 -67 0 -14 107 -116 118 -112 5 2 33
30 62 62 l53 58 -59 60 c-32 32 -61 59 -64 58 -3 0 -29 -26 -57 -59z"/>
<path d="M1310 6300 l0 -60 65 0 65 0 0 60 0 60 -65 0 -65 0 0 -60z"/>
<path d="M2790 6143 l0 -123 120 0 120 0 0 119 0 120 -120 3 -120 3 0 -122z"/>
<path d="M2550 5930 l0 -70 70 0 70 0 0 70 0 70 -70 0 -70 0 0 -70z"/>
<path d="M1520 5885 l-55 -55 58 -58 57 -57 57 57 57 57 -50 53 c-27 29 -53
54 -59 56 -6 1 -35 -22 -65 -53z"/>
<path d="M3153 5813 c9 -2 25 -2 35 0 9 3 1 5 -18 5 -19 0 -27 -2 -17 -5z"/>
<path d="M3092 5728 l2 -83 3 75 c3 43 9 78 16 82 8 5 6 8 -5 8 -16 0 -18 -10
-16 -82z"/>
<path d="M3141 5786 c2 -2 22 -6 44 -9 27 -4 35 -3 25 3 -14 9 -79 15 -69 6z"/>
<path d="M3123 5725 c0 -22 2 -30 4 -17 2 12 2 30 0 40 -3 9 -5 -1 -4 -23z"/>
<path d="M3233 5720 c0 -25 2 -35 4 -22 2 12 2 32 0 45 -2 12 -4 2 -4 -23z"/>
<path d="M2240 5655 l0 -65 70 0 70 0 0 65 0 65 -70 0 -70 0 0 -65z"/>
<path d="M3138 5663 c18 -2 45 -2 60 0 15 2 0 4 -33 4 -33 0 -45 -2 -27 -4z"/>
<path d="M3182 5632 l-103 -3 3 -97 3 -97 105 0 105 0 1 45 c1 25 -1 70 -5
100 l-6 55 -103 -3z"/>
<path d="M410 5593 c-23 -9 -25 -17 -22 -72 l4 -51 59 0 59 0 0 60 c0 56 -2
60 -22 60 -13 0 -32 2 -43 5 -11 2 -27 1 -35 -2z"/>
<path d="M3832 5525 c14 -16 38 -53 53 -82 84 -157 326 -425 508 -562 290
-217 644 -382 977 -455 171 -37 277 -49 460 -49 313 1 578 62 907 210 116 52
210 106 118 67 -206 -87 -244 -99 -455 -145 -94 -21 -129 -24 -335 -23 -126 1
-250 6 -275 12 -37 9 -26 9 60 5 58 -3 109 -6 114 -7 6 0 12 7 14 16 3 15 -2
17 -27 14 -17 -2 -31 1 -31 6 0 6 -9 8 -20 5 -11 -3 -17 -1 -14 5 3 5 20 7 37
4 30 -6 30 -5 7 5 -14 5 -33 8 -43 5 -14 -3 -17 0 -12 17 4 12 3 17 -2 12 -16
-21 -60 -34 -72 -22 -8 8 -11 6 -11 -8 0 -18 0 -18 -14 0 -8 11 -12 23 -10 27
3 5 -7 3 -23 -2 -24 -9 -25 -8 -12 3 15 11 14 14 -8 24 -23 11 -25 10 -20 -10
6 -20 5 -20 -7 -4 -7 9 -21 17 -31 17 -14 0 -15 -3 -5 -15 7 -9 11 -17 9 -19
-2 -2 -13 8 -23 22 -11 14 -14 22 -8 18 7 -4 12 -3 12 3 0 6 7 8 15 5 11 -5
13 -2 9 10 -7 20 -15 20 -39 2 -16 -11 -21 -10 -42 8 -18 15 -22 27 -18 45 5
19 3 22 -11 17 -13 -5 -14 -4 -6 7 9 10 8 14 -3 14 -8 0 -15 -3 -15 -7 0 -4
-16 -6 -35 -6 -19 1 -35 4 -35 9 0 4 5 7 10 7 6 0 10 7 10 15 0 8 -7 15 -15
15 -8 0 -14 -3 -14 -7 4 -23 -2 -43 -11 -38 -6 4 -8 10 -5 14 8 15 -23 46 -47
46 -15 0 -22 5 -20 15 3 12 1 12 -9 3 -6 -6 -18 -9 -26 -6 -8 3 -19 0 -24 -8
-7 -11 -9 -11 -9 3 0 11 -5 15 -15 12 -8 -4 -12 -11 -8 -18 3 -6 0 -5 -8 2 -8
7 -14 18 -14 25 0 7 -11 14 -24 15 -13 2 -21 0 -17 -6 3 -5 -1 -12 -9 -16 -8
-3 -14 0 -12 7 1 7 -6 11 -15 11 -10 -1 -16 1 -14 5 2 3 -2 15 -10 26 -8 10
-14 13 -14 7 0 -7 -5 -12 -11 -12 -5 0 -7 6 -3 13 6 9 4 9 -8 -1 -10 -8 -18
-9 -22 -3 -4 6 -14 7 -23 4 -12 -5 -14 -3 -8 8 6 11 5 12 -6 2 -7 -7 -20 -13
-29 -12 -10 0 -11 2 -2 6 6 2 10 8 8 12 -3 4 65 5 150 3 107 -3 159 -1 167 7
6 6 27 11 47 11 53 0 211 36 313 71 93 31 257 103 257 113 0 2 -33 -10 -72
-29 -108 -49 -230 -90 -364 -121 -111 -26 -133 -28 -339 -28 -190 -1 -236 3
-334 22 -316 64 -608 210 -853 426 -54 47 -101 85 -105 84 -5 -2 -8 4 -8 13 0
8 -22 38 -49 65 -28 27 -38 36 -24 19z m123 -145 c10 -11 14 -20 9 -20 -5 0
-15 9 -22 20 -7 11 -11 20 -9 20 2 0 12 -9 22 -20z m921 -479 l49 -8 -34 -9
c-26 -8 -42 -6 -66 6 -31 14 -40 35 -11 24 8 -3 36 -9 62 -13z m114 -19 c0 -5
-13 -7 -30 -4 -16 2 -30 6 -30 8 0 2 14 4 30 4 17 0 30 -4 30 -8z m170 -57 c0
-11 -29 -11 -33 -1 -4 10 1 12 14 9 10 -3 19 -7 19 -8z m-50 1 c0 -2 -7 -7
-16 -10 -8 -3 -12 -2 -9 4 6 10 25 14 25 6z m454 -172 c3 -8 2 -12 -4 -9 -6 3
-10 10 -10 16 0 14 7 11 14 -7z m-57 -90 c-3 -3 -12 -4 -19 -1 -8 3 -5 6 6 6
11 1 17 -2 13 -5z m70 -20 c-3 -3 -12 -4 -19 -1 -8 3 -5 6 6 6 11 1 17 -2 13
-5z m50 -10 c-3 -3 -12 -4 -19 -1 -8 3 -5 6 6 6 11 1 17 -2 13 -5z m88 -14
c27 -7 27 -8 5 -8 -14 0 -36 4 -50 8 -20 6 -21 8 -5 8 11 0 34 -4 50 -8z"/>
<path d="M1970 5390 l0 -70 70 0 70 0 0 70 0 70 -70 0 -70 0 0 -70z"/>
<path d="M2339 5278 c0 -2 -2 -40 -3 -85 l-3 -83 94 0 93 0 0 85 0 85 -90 0
c-49 0 -90 -1 -91 -2z"/>
<path d="M850 5193 l0 -58 60 3 60 4 0 54 0 54 -60 0 -60 0 0 -57z"/>
<path d="M6018 5104 c-38 -20 -36 -28 2 -9 17 9 30 18 30 20 0 7 -1 6 -32 -11z"/>
<path d="M3358 5103 c12 -2 30 -2 40 0 9 3 -1 5 -23 4 -22 0 -30 -2 -17 -4z"/>
<path d="M3303 5050 c0 -25 2 -35 4 -22 2 12 2 32 0 45 -2 12 -4 2 -4 -23z"/>
<path d="M3422 5048 l-2 -47 -57 -4 -58 -3 58 -2 c65 -2 71 3 64 64 -3 37 -4
37 -5 -8z"/>
<path d="M1618 5055 c-2 -2 -1 -31 0 -64 l4 -61 64 0 64 0 0 65 0 64 -64 0
c-36 -1 -66 -2 -68 -4z"/>
<path d="M3005 5025 c415 -579 1003 -945 1710 -1066 140 -24 457 -35 605 -21
75 6 48 8 -135 6 -157 -2 -263 1 -335 11 -162 22 -242 38 -230 45 6 4 22 5 36
2 15 -3 24 0 22 6 -2 6 6 17 16 25 17 13 17 14 2 20 -9 4 -15 3 -12 -2 3 -5
-3 -11 -14 -14 -17 -4 -18 -2 -9 14 9 17 7 19 -16 15 -21 -4 -24 -2 -16 8 14
16 2 29 -14 16 -9 -7 -17 -5 -26 7 -8 9 -9 14 -4 11 6 -4 17 -3 25 3 12 7 11
9 -5 10 -11 1 -27 2 -35 3 -10 1 -15 11 -14 28 1 15 -3 25 -8 22 -4 -3 -6 -9
-3 -14 3 -4 -3 -14 -12 -21 -15 -12 -16 -12 -10 3 4 12 2 15 -7 12 -7 -3 -20
2 -29 10 -18 19 -31 21 -21 4 4 -7 3 -8 -4 -4 -7 4 -12 14 -12 22 0 9 -7 14
-17 12 -14 -2 -17 3 -15 22 3 25 3 25 -22 -5 l-25 -30 1 33 c1 23 4 29 10 20
7 -10 9 -10 5 2 -2 8 -11 14 -18 12 -7 -2 -19 4 -25 13 -7 9 -18 17 -26 19 -7
1 -19 6 -27 10 -10 6 -12 5 -7 -2 4 -7 4 -12 1 -12 -9 0 -35 27 -37 37 0 4
-19 9 -40 11 -30 3 -38 1 -33 -9 5 -8 4 -10 -4 -5 -9 6 -9 11 1 24 7 9 8 13 3
10 -18 -11 -48 19 -42 42 3 13 1 18 -6 13 -7 -4 -24 -8 -39 -9 -24 -1 -25 0
-13 13 21 20 19 26 -4 13 -17 -9 -19 -7 -16 11 3 12 2 19 -1 16 -8 -8 -33 16
-27 26 2 4 -1 7 -6 7 -16 0 -13 -16 4 -30 17 -14 20 -30 5 -30 -5 0 -9 6 -7
13 1 6 -4 11 -10 10 -7 -2 -13 6 -13 16 0 11 -4 23 -10 26 -6 4 -7 -1 -3 -11
5 -13 3 -15 -7 -9 -10 6 -12 4 -6 -11 5 -14 0 -12 -19 8 -14 15 -25 34 -25 43
0 9 -4 14 -10 10 -5 -3 -7 -11 -4 -19 3 -7 -2 -13 -10 -13 -8 0 -13 3 -11 7 2
3 0 12 -5 19 -6 10 -9 8 -15 -8 -7 -22 -16 -26 -29 -14 -11 11 -59 12 -78 2
-14 -7 -16 -6 -12 6 3 8 10 12 15 9 5 -3 6 2 2 11 -3 9 -9 13 -12 8 -3 -4 -13
-14 -22 -20 -13 -10 -16 -10 -16 2 0 8 3 12 7 10 4 -2 7 2 7 10 0 11 -5 10
-25 -3 -24 -16 -24 -15 -18 8 3 14 3 19 0 13 -8 -17 -24 -16 -45 3 -11 10 -25
13 -40 9 -12 -4 -17 -10 -12 -14 6 -3 7 -15 3 -25 -6 -18 -7 -18 -13 4 -5 20
-9 22 -19 12 -14 -14 -54 -16 -63 -3 -3 6 4 8 15 6 14 -3 20 0 17 8 -2 7 -12
11 -22 9 -10 -2 -14 1 -10 7 7 13 -7 15 -20 3 -13 -12 -50 9 -50 28 0 9 -8 14
-22 13 -26 -3 -215 190 -331 336 -81 104 -124 151 -77 86z m425 -435 c0 -5 -2
-10 -4 -10 -3 0 -8 5 -11 10 -3 6 -1 10 4 10 6 0 11 -4 11 -10z m121 -107 l24
-26 -27 19 c-15 10 -28 22 -28 27 0 12 5 8 31 -20z m689 -183 c0 -5 -2 -10 -4
-10 -3 0 -8 5 -11 10 -3 6 -1 10 4 10 6 0 11 -4 11 -10z m88 -33 c16 -11 15
-24 -2 -24 -8 0 -12 6 -9 13 3 9 -2 11 -18 7 -14 -4 -20 -2 -16 5 8 11 25 11
45 -1z"/>
<path d="M1933 4765 c0 -33 2 -45 4 -27 2 18 2 45 0 60 -2 15 -4 0 -4 -33z"/>
<path d="M1950 4765 l0 -55 65 0 65 0 -2 48 -1 47 -4 -42 -4 -43 -55 0 -54 0
0 45 0 44 63 4 62 3 -67 2 -68 2 0 -55z"/>
<path d="M2099 4808 c-5 -49 -3 -128 4 -128 4 0 7 32 7 70 0 39 -2 70 -5 70
-3 0 -6 -6 -6 -12z"/>
<path d="M5434 4783 c2 -10 6 -17 10 -16 15 3 16 11 2 22 -12 10 -14 9 -12 -6z"/>
<path d="M5550 4761 c0 -6 4 -13 10 -16 6 -3 7 1 4 9 -7 18 -14 21 -14 7z"/>
<path d="M5503 4744 c0 -18 29 -15 33 4 1 7 0 8 -3 2 -3 -7 -9 -8 -17 -1 -9 8
-13 6 -13 -5z"/>
<path d="M2710 4561 l0 -140 133 -3 c72 -2 135 -2 140 0 4 2 7 66 7 143 l0
139 -140 0 -140 0 0 -139z"/>
<path d="M5584 4685 c-7 -17 3 -35 19 -35 9 0 8 3 -1 8 -7 5 -10 16 -6 25 3 9
3 17 0 17 -4 0 -9 -7 -12 -15z"/>
<path d="M5631 4676 c-9 -11 -9 -16 1 -22 7 -4 10 -4 6 1 -4 4 -3 14 3 22 6 7
9 13 6 13 -2 0 -10 -6 -16 -14z"/>
<path d="M5676 4661 c-3 -5 1 -14 8 -20 12 -10 13 -8 9 8 -6 23 -9 25 -17 12z"/>
<path d="M5760 4608 c0 -4 4 -8 9 -8 6 0 12 4 15 8 3 5 -1 9 -9 9 -8 0 -15 -4
-15 -9z"/>
<path d="M5790 4590 c-13 -8 -12 -10 3 -10 9 0 17 -4 17 -10 0 -5 8 -6 17 -3
14 5 14 8 2 11 -7 3 -16 9 -19 13 -3 4 -12 4 -20 -1z"/>
<path d="M5999 4541 c9 -6 10 -11 2 -15 -6 -4 -11 -13 -11 -20 0 -19 142 -16
148 3 3 8 0 11 -6 7 -6 -3 -13 -2 -16 3 -8 13 -42 6 -38 -8 3 -15 -6 -14 -23
2 -34 30 -45 37 -57 37 -10 0 -10 -2 1 -9z m116 -31 c3 -5 1 -10 -4 -10 -6 0
-11 5 -11 10 0 6 2 10 4 10 3 0 8 -4 11 -10z"/>
<path d="M6186 4512 c-3 -5 1 -9 9 -9 8 0 12 4 9 9 -3 4 -7 8 -9 8 -2 0 -6 -4
-9 -8z"/>
<path d="M3965 4500 c-4 -6 -11 -7 -17 -4 -7 4 -8 2 -4 -4 10 -16 23 -15 30 3
6 17 0 20 -9 5z"/>
<path d="M2083 4413 c-33 -4 -33 -5 -33 -59 l0 -55 63 3 62 3 0 55 c0 54 0 55
-30 56 -16 1 -45 -1 -62 -3z"/>
<path d="M4150 4375 c0 -8 5 -15 10 -15 6 0 10 7 10 15 0 8 -4 15 -10 15 -5 0
-10 -7 -10 -15z"/>
<path d="M4190 4350 c0 -5 5 -10 10 -10 6 0 10 5 10 10 0 6 -4 10 -10 10 -5 0
-10 -4 -10 -10z"/>
<path d="M2290 4005 l0 -55 60 0 60 0 0 55 0 55 -60 0 -60 0 0 -55z"/>
<path d="M4710 4021 c-8 -6 -18 -7 -22 -5 -4 3 -5 -2 -2 -10 3 -9 11 -16 17
-16 6 0 7 3 4 7 -4 3 1 12 11 19 19 15 14 18 -8 5z"/>
<path d="M5818 4023 c7 -3 16 -2 19 1 4 3 -2 6 -13 5 -11 0 -14 -3 -6 -6z"/>
<path d="M4730 3988 c0 -4 6 -8 14 -8 8 0 17 4 20 8 2 4 -4 8 -15 8 -10 0 -19
-4 -19 -8z"/>
<path d="M5650 3990 c-20 -6 -21 -8 -5 -8 11 0 31 4 45 8 20 6 21 8 5 8 -11 0
-31 -4 -45 -8z"/>
<path d="M5573 3973 c9 -2 23 -2 30 0 6 3 -1 5 -18 5 -16 0 -22 -2 -12 -5z"/>
<path d="M5455 3960 c-34 -6 -36 -7 -10 -8 17 0 48 3 70 7 33 7 35 9 10 8 -16
0 -48 -3 -70 -7z"/>
<path d="M920 2743 l0 -538 99 0 c55 0 101 2 103 5 1 3 2 245 0 538 l-2 532
-100 0 -100 0 0 -537z"/>
<path d="M1785 3021 c-53 -13 -120 -47 -158 -81 l-37 -32 0 51 0 51 -95 0 -95
0 0 -402 0 -403 92 2 93 1 5 249 c5 270 10 293 66 348 41 38 85 55 146 55 65
0 128 -28 155 -66 42 -61 46 -91 51 -344 l4 -245 96 2 97 1 3 214 c4 262 -7
353 -52 434 -71 128 -230 199 -371 165z"/>
<path d="M2855 3024 c-71 -18 -122 -40 -161 -70 l-44 -34 0 45 0 45 -100 0
-100 0 0 -398 c0 -219 2 -401 4 -403 2 -2 47 -3 100 -1 l96 3 0 228 c0 268 8
309 69 364 114 103 302 58 341 -81 5 -21 10 -142 10 -274 l0 -237 88 -3 c48
-2 91 0 95 3 5 4 7 132 5 285 -4 242 -7 286 -23 329 -25 68 -113 156 -180 179
-51 18 -164 29 -200 20z"/>
<path d="M3788 3016 c-130 -29 -242 -116 -301 -235 -26 -54 -32 -78 -35 -155
-5 -108 19 -192 74 -268 158 -214 521 -231 702 -33 63 69 91 126 105 216 21
134 -14 246 -109 348 -107 116 -270 163 -436 127z m207 -175 c115 -51 169
-182 131 -314 -67 -232 -394 -232 -462 -1 -64 221 129 404 331 315z"/>
<path d="M5348 2768 c-2 -35 -1 -79 3 -98 3 -21 6 5 7 63 2 109 -4 131 -10 35z"/>
<path d="M4620 2620 l0 -90 225 0 225 0 0 88 0 87 -225 2 -225 3 0 -90z"/>
<path d="M8754 2545 c0 -49 1 -71 3 -48 2 23 2 64 0 90 -2 26 -3 8 -3 -42z"/>
<path d="M5370 2572 c0 -21 50 -113 91 -166 128 -168 351 -252 569 -216 74 12
155 38 146 47 -2 2 -20 -2 -39 -11 -56 -23 -185 -39 -257 -32 -61 7 -163 31
-185 45 -5 3 -13 6 -17 6 -4 0 -36 19 -72 43 -84 55 -159 139 -201 227 -19 39
-35 64 -35 57z"/>
<path d="M5576 2567 c3 -10 9 -15 12 -12 3 3 0 11 -7 18 -10 9 -11 8 -5 -6z"/>
<path d="M5600 2520 c6 -11 13 -20 16 -20 2 0 0 9 -6 20 -6 11 -13 20 -16 20
-2 0 0 -9 6 -20z"/>
<path d="M5639 2467 c15 -19 71 -61 71 -54 0 2 -19 19 -42 37 -24 19 -37 26
-29 17z"/>
<path d="M6209 2453 c-13 -16 -12 -17 4 -4 16 13 21 21 13 21 -2 0 -10 -8 -17
-17z"/>
<path d="M8310 2335 l0 -114 -77 -4 -78 -3 83 -2 82 -2 0 120 c0 66 -2 120 -5
120 -3 0 -5 -52 -5 -115z"/>
<path d="M5720 2405 c0 -11 105 -55 130 -54 16 0 5 6 -30 18 -30 9 -65 23 -77
30 -13 6 -23 9 -23 6z"/>
<path d="M6090 2383 c-32 -15 -86 -29 -130 -34 l-75 -8 75 3 c54 2 91 10 133
29 31 14 57 28 57 31 0 7 6 9 -60 -21z"/>
<path d="M7120 2365 c0 -5 5 -17 10 -25 5 -8 10 -10 10 -5 0 6 -5 17 -10 25
-5 8 -10 11 -10 5z"/>
<path d="M8133 2325 c0 -27 2 -38 4 -22 2 15 2 37 0 50 -2 12 -4 0 -4 -28z"/>
<path d="M9070 2340 l-55 -7 50 -1 c28 -1 57 3 65 8 8 5 11 9 5 8 -5 -1 -35
-4 -65 -8z"/>
<path d="M6289 2313 c-8 -9 -34 -29 -58 -45 -25 -15 -41 -28 -36 -28 15 0 115
71 115 81 0 13 -6 11 -21 -8z"/>
<path d="M7175 2270 c10 -11 20 -20 23 -20 3 0 -3 9 -13 20 -10 11 -20 20 -23
20 -3 0 3 -9 13 -20z"/>
<path d="M9200 2275 c0 -5 5 -17 10 -25 5 -8 10 -10 10 -5 0 6 -5 17 -10 25
-5 8 -10 11 -10 5z"/>
<path d="M8810 2266 c0 -2 8 -10 18 -17 15 -13 16 -12 3 4 -13 16 -21 21 -21
13z"/>
<path d="M7861 2224 c0 -11 3 -14 6 -6 3 7 2 16 -1 19 -3 4 -6 -2 -5 -13z"/>
<path d="M8865 2221 c6 -5 24 -13 40 -17 39 -9 30 0 -15 15 -19 6 -30 7 -25 2z"/>
<path d="M6578 2213 c29 -2 74 -2 100 0 26 2 2 3 -53 3 -55 0 -76 -1 -47 -3z"/>
<path d="M9067 2200 c-27 -5 -52 -11 -55 -14 -7 -8 88 5 113 15 25 10 5 9 -58
-1z"/>
<path d="M7318 2193 c7 -3 16 -2 19 1 4 3 -2 6 -13 5 -11 0 -14 -3 -6 -6z"/>
<path d="M7498 2193 c7 -3 16 -2 19 1 4 3 -2 6 -13 5 -11 0 -14 -3 -6 -6z"/>
<path d="M8953 2193 c9 -2 23 -2 30 0 6 3 -1 5 -18 5 -16 0 -22 -2 -12 -5z"/>
<path d="M7398 2183 c18 -2 45 -2 60 0 15 2 0 4 -33 4 -33 0 -45 -2 -27 -4z"/>
<path d="M4178 1823 c-36 -6 -68 -47 -68 -89 0 -32 -2 -34 -35 -34 -23 0 -35
-5 -35 -14 0 -8 15 -17 35 -20 l35 -7 0 -134 0 -135 25 0 25 0 0 135 0 135 50
0 c43 0 50 3 50 20 0 17 -7 20 -50 20 -46 0 -50 2 -50 23 0 32 30 57 68 57 25
0 32 4 32 19 0 10 -7 22 -16 25 -16 6 -19 6 -66 -1z"/>
<path d="M4850 1811 c-15 -29 -2 -51 30 -51 20 0 31 6 35 20 14 43 -44 69 -65
31z"/>
<path d="M7291 1816 c-21 -25 -4 -58 27 -54 23 2 27 8 27 33 0 23 -5 31 -21
33 -11 2 -26 -4 -33 -12z"/>
<path d="M2077 1778 c-9 -7 -39 -78 -67 -158 -28 -79 -52 -146 -54 -148 -2 -2
-18 39 -35 90 -60 183 -74 213 -103 216 l-26 3 44 -123 c25 -68 56 -156 70
-195 22 -61 30 -73 48 -73 19 0 28 19 76 160 48 141 70 188 70 148 0 -7 23
-80 52 -161 49 -137 55 -147 76 -145 20 3 29 16 52 83 16 44 47 131 69 193
l41 113 -27 -3 c-26 -3 -31 -12 -71 -128 -24 -69 -47 -143 -51 -165 l-6 -40
-29 80 c-15 44 -39 116 -53 160 -24 77 -38 105 -52 105 -4 0 -15 -6 -24 -12z"/>
<path d="M4395 1781 c-15 -5 -20 -15 -20 -41 0 -32 -3 -35 -32 -38 -43 -4 -44
-30 -1 -34 l32 -3 1 -110 c1 -148 16 -172 106 -163 27 2 35 8 37 26 3 22 0 23
-34 20 -50 -4 -65 22 -63 117 2 111 4 115 55 115 32 0 44 4 44 14 0 11 -14 16
-47 18 -48 3 -48 3 -48 40 0 43 -3 47 -30 39z"/>
<path d="M7058 1783 c-13 -3 -18 -15 -18 -44 0 -37 -2 -39 -30 -39 -39 0 -41
-27 -2 -32 l27 -3 5 -118 c5 -111 7 -120 29 -138 19 -15 37 -19 75 -17 44 3
51 6 54 25 3 19 0 21 -36 16 -63 -8 -72 9 -72 133 l0 106 47 -3 c39 -3 48 0
51 14 3 14 -5 17 -47 17 l-51 0 0 45 c0 25 -3 44 -7 44 -5 -1 -16 -3 -25 -6z"/>
<path d="M2541 1688 c-60 -31 -83 -65 -88 -130 -5 -65 17 -112 66 -145 73 -49
225 -16 204 45 -7 17 -20 15 -43 -8 -25 -25 -95 -27 -128 -4 -25 17 -54 68
-45 78 4 3 60 6 125 6 l118 0 0 27 c0 40 -36 106 -67 125 -50 29 -93 31 -142
6z m125 -51 c30 -30 40 -67 20 -67 -107 -4 -181 0 -184 8 -6 18 18 52 51 73
39 24 82 19 113 -14z"/>
<path d="M3134 1691 c-85 -39 -116 -135 -72 -221 28 -55 72 -79 148 -80 55 0
90 14 118 48 30 38 -8 50 -52 17 -115 -88 -249 74 -146 177 39 38 105 40 140
3 26 -28 42 -31 59 -12 22 28 -70 87 -134 87 -11 0 -38 -9 -61 -19z"/>
<path d="M3560 1699 c-14 -6 -35 -20 -47 -31 l-23 -21 0 26 c0 22 -5 27 -25
27 l-25 0 0 -155 0 -155 25 0 c25 0 25 1 25 90 0 127 25 170 98 170 22 0 31 6
35 22 4 12 5 23 4 24 -11 9 -47 11 -67 3z"/>
<path d="M3766 1700 c-30 -9 -76 -47 -76 -62 0 -19 31 -19 56 1 54 42 148 17
142 -37 -3 -26 -7 -27 -73 -35 -76 -8 -114 -29 -129 -70 -12 -33 8 -81 40 -96
47 -21 154 -7 154 21 0 17 18 7 23 -13 4 -13 12 -20 24 -17 16 3 18 16 21 99
3 109 -11 163 -48 190 -30 22 -95 31 -134 19z m129 -180 c13 -42 -37 -90 -96
-90 -42 0 -62 18 -57 52 7 48 139 82 153 38z"/>
<path d="M5170 1699 c-14 -5 -28 -17 -33 -25 -12 -20 -27 -17 -27 6 0 15 -7
20 -25 20 l-25 0 0 -155 0 -155 25 0 25 0 0 109 0 109 31 26 c42 35 97 36 130
0 22 -24 24 -33 24 -135 l0 -109 29 0 28 0 -3 118 c-4 122 -12 146 -57 178
-27 19 -92 26 -122 13z"/>
<path d="M5600 1699 c-13 -6 -33 -17 -42 -26 -17 -15 -18 -15 -18 5 0 17 -6
22 -25 22 l-25 0 0 -155 0 -155 25 0 c25 0 25 1 25 90 0 56 5 104 14 125 27
63 109 82 152 33 16 -16 20 -40 23 -134 3 -113 3 -114 27 -114 24 0 24 1 24
107 0 87 -4 114 -21 149 -28 58 -92 79 -159 53z"/>
<path d="M5997 1696 c-93 -34 -129 -119 -92 -214 25 -62 67 -87 146 -87 56 0
71 4 101 27 43 33 62 83 55 145 -11 103 -112 165 -210 129z m98 -42 c34 -16
65 -65 65 -103 0 -39 -28 -89 -59 -105 -62 -33 -121 -12 -147 50 -28 67 -12
117 50 155 38 23 49 23 91 3z"/>
<path d="M6702 1700 c-12 -5 -34 -20 -48 -33 -23 -22 -24 -25 -9 -37 13 -11
20 -11 33 -2 58 42 121 44 150 5 26 -36 15 -50 -45 -58 -80 -10 -133 -33 -144
-62 -28 -73 9 -123 90 -123 56 0 91 17 108 50 12 24 13 24 13 -12 0 -31 4 -38
20 -38 19 0 20 7 20 118 0 98 -3 122 -20 149 -27 45 -109 66 -168 43z m139
-172 c2 -41 -2 -53 -27 -75 -35 -32 -108 -32 -125 -2 -17 32 16 71 72 86 67
17 79 16 80 -9z"/>
<path d="M7555 1695 c-123 -45 -138 -227 -23 -286 115 -59 238 15 238 144 0
108 -110 181 -215 142z m99 -35 c69 -26 87 -142 31 -200 -42 -44 -95 -42 -141
4 -29 29 -34 41 -34 83 0 57 19 89 64 109 38 16 48 17 80 4z"/>
<path d="M7977 1686 c-40 -28 -48 -31 -46 -18 4 23 -4 32 -27 32 l-25 0 3
-152 3 -153 25 0 c25 0 25 1 28 100 1 55 7 110 13 121 20 40 95 58 130 31 31
-24 39 -56 39 -156 l0 -101 26 0 26 0 -4 125 c-3 123 -3 125 -33 154 -45 44
-108 51 -158 17z"/>
<path d="M4850 1544 l0 -155 28 3 27 3 3 153 3 152 -31 0 -30 0 0 -156z"/>
<path d="M6291 1643 c11 -32 27 -71 35 -88 8 -16 25 -59 38 -95 20 -54 28 -66
49 -68 13 -2 27 3 30 10 67 160 117 283 117 290 0 4 -11 8 -24 8 -21 0 -27 -9
-46 -67 -13 -38 -34 -93 -48 -123 l-25 -55 -17 40 c-10 22 -31 77 -46 123 -27
76 -31 82 -56 82 l-28 0 21 -57z"/>
<path d="M7300 1695 c0 -3 -1 -71 -1 -152 l0 -148 25 -3 26 -3 0 155 0 156
-25 0 c-14 0 -25 -2 -25 -5z"/>
</g>
</svg>
